<?xml version="1.0" encoding="UTF-8"?><svg id="Ebene_1" xmlns="http://www.w3.org/2000/svg" viewBox="0 0 250.99 68.02"><defs><style>.cls-1{fill:#006eae;}.cls-2{fill:#aad200;}</style></defs><path class="cls-2" d="m235.23,68.02c8.7,0,15.75-7.05,15.75-15.75s-7.05-15.75-15.75-15.75-15.75,7.05-15.75,15.75,7.05,15.75,15.75,15.75h0Z"/><path class="cls-1" d="m82.16,58.19c6.6,6.2,15.6,9.4,24.1,9.4,15.6,0,24.6-9.4,24.6-20.2,0-9.2-5-14.5-12.9-17.7l-8.4-3.4c-5.6-2.3-9.9-3.7-9.9-7.7,0-3.7,3.2-5.9,8.3-5.9s9.2,1.9,13.5,5.2l7.5-9.3c-5.6-5.6-13.5-8.6-21-8.6-13.6,0-23.2,8.6-23.2,19.4,0,9.5,6.4,15.1,13.1,17.8l8.5,3.6c5.7,2.4,9.4,3.7,9.4,7.8s-3,6.3-9.1,6.3c-5.4,0-11.4-2.8-16.1-6.8l-8.4,10.1h0Z"/><path class="cls-1" d="m12.1,66.39h18.2l6.1-29.6c1.1-5,1.9-10.3,2.7-15.1h.4c.7,4.8,1.5,10.1,2.6,15.1l6.4,29.6h18.5L78.6,1.2h-14.1l-4.5,30.5c-.9,6.7-1.8,13.6-2.7,20.6h-.4c-1.3-7-2.6-14-3.9-20.6L46,1.2h-12.5l-7,30.5c-1.3,6.8-2.6,13.7-3.9,20.6h-.4c-.8-6.9-1.8-13.8-2.6-20.6L15.1,1.2H0l12.1,65.2h0Z"/><path class="cls-1" d="m146.52,66.39h18.2l6.1-29.6c1.1-5,1.9-10.3,2.7-15.1h.4c.7,4.8,1.5,10.1,2.6,15.1l6.4,29.6h18.5L213.02,1.2h-14.1l-4.5,30.5c-.9,6.7-1.8,13.6-2.7,20.6h-.4c-1.3-7-2.6-14-3.9-20.6l-7-30.5h-12.5l-7,30.5c-1.3,6.8-2.6,13.7-3.9,20.6h-.4c-.8-6.9-1.8-13.8-2.6-20.6l-4.5-30.5h-15.1l12.1,65.2h0Z"/></svg>